<svg id="Layer_1" data-name="Layer 1" xmlns="http://www.w3.org/2000/svg" viewBox="0 0 600 300"><defs><style>.cls-1{fill:#e1e5e5;}.cls-2{fill:#4ca771;}</style></defs><path class="cls-1" d="M57.38,209.73V181.07a1,1,0,0,1,.24-.66l50.44-58.51a1,1,0,0,0-.77-1.67H60.43a1,1,0,0,1-1-1V90.27a1,1,0,0,1,1-1h97.39a1,1,0,0,1,1,1v28.65a1,1,0,0,1-.24.67l-51,58.51a1,1,0,0,0,.76,1.67h51.67a1,1,0,0,1,1,1v28.95a1,1,0,0,1-1,1H58.39A1,1,0,0,1,57.38,209.73Z"/><path class="cls-1" d="M218.38,121.24v12.45a1,1,0,0,0,1,1H256a1,1,0,0,1,1,1v27.1a1,1,0,0,1-1,1H219.39a1,1,0,0,0-1,1v13.93a1,1,0,0,0,1,1H271a1,1,0,0,1,1,1v28.95a1,1,0,0,1-1,1H176.91a1,1,0,0,1-1-1V90.27a1,1,0,0,1,1-1h90a1,1,0,0,1,1,1v29a1,1,0,0,1-1,1h-47.5A1,1,0,0,0,218.38,121.24Z"/><path class="cls-1" d="M376.34,171.42,404,209.14a1,1,0,0,1-.81,1.61h-44a1,1,0,0,1-.84-.46l-21.66-32.85a1,1,0,0,0-.85-.45h-5.49a1,1,0,0,0-1,1v31.73a1,1,0,0,1-1,1H287.83a1,1,0,0,1-1-1V90.27a1,1,0,0,1,1-1h63c25.23,0,46.19,15,46.19,44.14,0,18-8.43,29.77-20.33,36.54A1,1,0,0,0,376.34,171.42Zm-37.8-51.19h-8.23a1,1,0,0,0-1,1v25.62a1,1,0,0,0,1,1h4.37c10.56,0,17.26-1.94,18.9-9.62C355.56,128.92,348.08,120.23,338.54,120.23Z"/><path class="cls-2" d="M542.62,149.17c0,33.75-20.77,64.55-70.85,64.55-46.19,0-65.11-34.69-65.11-62.89,0-32.27,20.22-64.55,70.49-64.55C523.52,86.28,542.62,118.93,542.62,149.17Z"/><path class="cls-1" d="M451.17,146.61a11.87,11.87,0,0,1,1.92-4.59,1.65,1.65,0,0,1,2.23-.35,1.47,1.47,0,0,1,.37,2.09,10.77,10.77,0,0,0-1.36,6.93c.49,2.72,1.31,4.91,5.82,5.72,2.86.51,3.14,2.71,3.35,4.31a8.87,8.87,0,0,0,3.23,6.36,18.62,18.62,0,0,0,3.91,2.4c.72.37,1.47.76,2.22,1.2a23.6,23.6,0,0,0,2-8.9,14.31,14.31,0,0,0-3-8.33l-.4-.52.12-.64a15.74,15.74,0,0,0,.31-3.41,6.67,6.67,0,0,1-2,.3,8.89,8.89,0,0,1-7-3.12c-2.76-3.28-2.12-6.94-2-8.85s.24-3.43.48-5.59c.35-3.35.8-7.52.46-9-1-4.56-3.38-4.48-4.27-4.46a1.54,1.54,0,0,1-1.64-1.44,1.56,1.56,0,0,1,1.55-1.56c2.2-.06,6.11.73,7.49,6.82.44,1.94,0,6-.41,9.92-.23,2.16-.43,3.72-.47,5.46s-.32,4.93,1.32,6.85a6.2,6.2,0,0,0,4.68,2,4.48,4.48,0,0,0,3.38-2.26,8.69,8.69,0,0,0-1.28-9.16l-.78-.94.81-.93a8.82,8.82,0,0,0,2.22-6.08,8.7,8.7,0,0,0-1.87-5.1l-.71-.92.75-.9a8.83,8.83,0,0,0,2.12-6c-.17-5.32-3.84-8.92-8.93-8.76-3.51.11-6.14,1.57-7.61,5-3.56-1-7.72,2.14-8.64,5.21s-.38,7,3.65,11.81A14.24,14.24,0,0,0,455,129a1.44,1.44,0,0,1,.13,2.12,1.64,1.64,0,0,1-1.15.5,1.69,1.69,0,0,1-1.11-.37,17.72,17.72,0,0,1-2.28-2.3,19.68,19.68,0,0,1-4.27-10c-6.08,4.16-6.86,11.81-4.09,16C438.68,140.4,444.2,146.94,451.17,146.61Z"/><path class="cls-1" d="M469.09,172.12a16.86,16.86,0,0,1-4.55-2.85,11.63,11.63,0,0,1-4.21-8.17c-.21-1.64-.28-1.65-.79-1.74a11.54,11.54,0,0,1-5.63-2.38,12.12,12.12,0,0,1-4.46,1,14.35,14.35,0,0,1-7.45-1.92,1.44,1.44,0,0,1-.43-2.08,1.66,1.66,0,0,1,2.21-.42,10.27,10.27,0,0,0,8.25.9,10.93,10.93,0,0,1-1.17-4.85c-6.71.18-12.92-3.78-13.19-10.43-8.68,12.75,1.66,24.7,13.45,28.08a7.89,7.89,0,0,1,5.5,7.4,7.24,7.24,0,0,1-.43,2.42,17.91,17.91,0,0,1,4.2,1.34,15.23,15.23,0,0,1-.06-4.3,1.61,1.61,0,0,1,1.82-1.27,1.52,1.52,0,0,1,1.35,1.7s-.74,4.81,1.37,7a10.34,10.34,0,0,1,2.56,5.34,1.53,1.53,0,0,1-1.36,1.7h-.18a1.57,1.57,0,0,1-1.63-1.29c-.94-6.4-7.51-7.29-9.83-7.52a12,12,0,0,1-4.85,2.84,2,2,0,0,1-.48.09,1.61,1.61,0,0,1-1.56-1,1.49,1.49,0,0,1,1-1.92c3.18-1.06,4.92-2.89,4.9-5.15a5,5,0,0,0-3.31-4.58c-6.57-2-11.39-5.36-14.37-9.88-3.85,10.08,4.5,14.35,9.84,13.72a1.58,1.58,0,0,1,1.78,1.31A1.52,1.52,0,0,1,446,177c-.44,0-.86.08-1.27.1a14.15,14.15,0,0,1-4.89-.71c-1.25,5.57,4.44,14.85,14.85,11,1.3,7.29,12.06,10.67,18.26,3.74S474.79,174.51,469.09,172.12Z"/><path class="cls-1" d="M476.78,126a8,8,0,0,0,.12,1.11,23.19,23.19,0,0,1,3.52-3.75l1.05-.84c3.37-2.67,5.06-4,4.76-8.49a1.55,1.55,0,0,1,3.09-.19c.39,5.94-2.23,8-5.86,10.89l-1,.83a19.6,19.6,0,0,0-4.18,5l0,0-.32.65a8.36,8.36,0,0,0-.88,4,8.58,8.58,0,0,0,1,3.74l.31.57-.25.61a11.6,11.6,0,0,0-.07,9,13.57,13.57,0,0,1,4.4-3.6,14,14,0,0,1,7.67-1.68A17,17,0,0,1,502.33,138h.12c2.73-.09,8.1.69,10.48,3.9,1-5.8-1-10.56-7.07-11.8a10.09,10.09,0,0,0-4.65-10.73,13,13,0,0,1-5,6.59,12.11,12.11,0,0,1,2.48,6.4,1.5,1.5,0,0,1-1.5,1.47h0a1.48,1.48,0,0,1-1.56-1.42,9.41,9.41,0,0,0-1.91-4.76,13.62,13.62,0,0,0-6.3,7.91,1.55,1.55,0,0,1-1.43,1,1.75,1.75,0,0,1-.5-.06,1.44,1.44,0,0,1-1-1.81c1.91-5.8,5.2-7.95,8.11-9.84,2.46-1.61,4.6-3,5.78-6.64l.24-1.21a8.8,8.8,0,0,0,.18-2.16c-.17-5.59-5.15-10-11.1-9.79S477,110,477.21,115.56a9.52,9.52,0,0,0,1.05,4.06l.37.72-.44.67A8.5,8.5,0,0,0,476.78,126Z"/><path class="cls-1" d="M513.85,161.79a29.65,29.65,0,0,1-2.86,3,1.62,1.62,0,0,1-2.18,0,1.39,1.39,0,0,1,.05-2.05,26.51,26.51,0,0,0,3.21-3.51l0,0,.55-.86a11.35,11.35,0,0,0-2-14.71l-.32-.29-.11-.11a12.06,12.06,0,0,0-7.74-2.26A13.93,13.93,0,0,0,492,146.25l-.69.88-1.09-.39c-1-.33-3.54-.18-6.22,1.23a9.89,9.89,0,0,0-5,6.22c-1.39,5.16,2.58,8.16,4,9.16a1.46,1.46,0,0,1,.59,2,1.56,1.56,0,0,1-1.3.74,1.64,1.64,0,0,1-.8-.18,11.65,11.65,0,0,1-4-3.69,10.21,10.21,0,0,0,1.88,9.85l.45.54a34.93,34.93,0,0,0,4.52,3.93c.67.52,1.28,1,1.74,1.38,4.3,3.68,3.46,8.18,2.42,10a1.6,1.6,0,0,1-1.33.78,1.57,1.57,0,0,1-.76-.17,1.41,1.41,0,0,1-.65-1.95c.19-.36,1.75-3.54-1.77-6.56-.43-.36-1-.79-1.61-1.27-1.08-.83-2.36-1.83-3.55-2.92a6.73,6.73,0,0,0-.09,1.27,7.21,7.21,0,0,0,.86,3.19l.36.69-.4.67a8.48,8.48,0,0,0-1.22,4.62c.16,4.92,4.54,8.78,9.78,8.62a9.51,9.51,0,0,0,8.38-5.31l.27-.56.61-.22a8.31,8.31,0,0,0,4.15-3.15,8.65,8.65,0,0,1-3.69-1.24,7.56,7.56,0,0,1-3.68-5.69,14.73,14.73,0,0,1,1.16-6.42,14.32,14.32,0,0,1-3.92.69,9.1,9.1,0,0,1-3.35-.44,1.42,1.42,0,0,1-.85-1.89,1.58,1.58,0,0,1,2-.8c1.73.65,7.18.06,9.05-3.24s2.42-5.2,1.7-6.92a4,4,0,0,0-3-2.46,6.59,6.59,0,0,0-5.54,1.65,1.6,1.6,0,0,1-2.18-.05,1.39,1.39,0,0,1,.07-2,10,10,0,0,1,6.92-2.53,12,12,0,0,0,.07-5.33,1.46,1.46,0,0,1,1.13-1.76,1.55,1.55,0,0,1,1.87,1.06,14.55,14.55,0,0,1-.07,6.7,6.94,6.94,0,0,1,3.64,3.7c1.49,3.57-.29,6.83-3.32,11.85,0,0-2.63,4.62-2.29,7.95a4.62,4.62,0,0,0,2.3,3.55C508,186.92,518,173.1,513.85,161.79Z"/></svg>